<svg width="830" height="135" viewBox="0 0 830 135" fill="none" xmlns="http://www.w3.org/2000/svg">
<g clip-path="url(#clip0_512_6299)">
<rect width="830" height="135" rx="14" fill="#162830"/>
<rect width="830" height="135" rx="14" fill="#142227" fill-opacity="0.4"/>
<rect width="830" height="135" rx="14" fill="url(#paint0_radial_512_6299)" fill-opacity="0.2"/>
<rect width="830" height="135" rx="14" fill="url(#paint1_radial_512_6299)" fill-opacity="0.2"/>
<path fill-rule="evenodd" clip-rule="evenodd" d="M39.0098 30.8346L28 30.835V25.123H39.0098V30.835H44.754V41.8771H39.0098V36.5471C36.093 36.5979 33.7442 38.9647 33.7442 41.8771H28C28 35.8103 32.9205 30.8862 39.0098 30.835V30.8346Z" fill="#A0E3FF"/>
<path d="M65.4379 25.368L65.1579 28.672H58.0459V32.004H63.8979V35.224H58.0459V38.696H65.5779V42H54.3219V25.368H65.4379ZM66.2324 42V38.948L72.2524 32.76H66.5684V29.68H76.5084V32.732L70.5164 38.92H76.8444V42H66.2324ZM81.6497 24.248V42H78.0657V24.416L81.6497 24.248ZM95.5561 29.68L91.9161 40.18C91.3934 41.7293 90.7681 43.0173 90.0401 44.044C89.3307 45.0707 88.5467 45.8547 87.6881 46.396C86.8481 46.9373 85.9614 47.2827 85.0281 47.432L83.5161 44.632C84.3934 44.464 85.1307 44.156 85.7281 43.708C86.3441 43.26 86.8387 42.6907 87.2121 42L82.3401 29.764L86.1201 29.596L88.1921 34.944C88.4347 35.6347 88.6494 36.2787 88.8361 36.876C89.0414 37.4733 89.1814 37.9773 89.2561 38.388H89.3961C89.4707 37.9773 89.5827 37.4733 89.7321 36.876C89.8814 36.2787 90.0587 35.6347 90.2641 34.944L91.9441 29.68H95.5561Z" fill="#A0E3FF"/>
<path d="M48.4377 78H43.5601L41.8427 73.0194H34.6637L32.9119 78H28.2748L35.6942 57.5966H41.0183L48.4377 78ZM40.6748 69.4127L39.0261 64.7756C38.8658 64.3176 38.7284 63.894 38.6139 63.5047C38.5223 63.0925 38.4307 62.6803 38.3391 62.2681H38.1673C38.0757 62.6803 37.9727 63.0925 37.8582 63.5047C37.7666 63.894 37.6407 64.3176 37.4804 64.7756L35.7972 69.4127H40.6748ZM64.2568 78H59.8601V68.9662C59.8601 68.0731 59.6426 67.4319 59.2075 67.0426C58.7724 66.6533 58.177 66.4587 57.4214 66.4587C56.9176 66.4587 56.4023 66.5503 55.8756 66.7335C55.349 66.8938 54.8452 67.1228 54.3643 67.4205V78H49.9676V62.9894L54.3643 62.7833V64.1917C55.0971 63.6421 55.8413 63.2413 56.597 62.9894C57.3756 62.7146 58.1885 62.5772 59.0358 62.5772C60.6158 62.5772 61.8753 63.0238 62.8142 63.9169C63.7759 64.787 64.2568 66.161 64.2568 68.0388V78ZM87.0968 71.508H77.4104C77.5478 72.1263 77.8226 72.6644 78.2348 73.1224C78.6699 73.5575 79.2194 73.8896 79.8835 74.1185C80.5705 74.3475 81.372 74.462 82.288 74.462C83.0665 74.462 83.9024 74.359 84.7955 74.1529C85.6885 73.9239 86.4213 73.6377 86.9938 73.2942L87.1655 77.0382C86.5702 77.4504 85.7687 77.771 84.7611 78C83.7764 78.2061 82.849 78.3091 81.9788 78.3091C80.0324 78.3091 78.3607 77.9886 76.9639 77.3474C75.5899 76.6833 74.548 75.7559 73.8381 74.5651C73.1511 73.3743 72.8076 71.9775 72.8076 70.3745C72.8076 68.7944 73.1282 67.4319 73.7694 66.287C74.4335 65.1191 75.338 64.2146 76.483 63.5734C77.6508 62.9093 78.9561 62.5772 80.3988 62.5772C81.7269 62.5772 82.9063 62.8406 83.9367 63.3673C84.9901 63.894 85.803 64.6611 86.3755 65.6687C86.9709 66.6533 87.2686 67.8441 87.2686 69.241C87.2686 69.5387 87.2457 69.9051 87.1999 70.3401C87.177 70.7523 87.1426 71.1416 87.0968 71.508ZM80.4331 65.7374C79.54 65.7374 78.8073 66.0351 78.2348 66.6304C77.6852 67.2258 77.3531 68.0159 77.2386 69.0005H83.181C83.181 68.9547 83.181 68.886 83.181 68.7944C83.181 68.6799 83.181 68.5998 83.181 68.554C83.181 67.7067 82.9292 67.0312 82.4254 66.5274C81.9445 66.0007 81.2804 65.7374 80.4331 65.7374ZM102.476 78H98.3196V76.8321C97.77 77.2672 97.1059 77.6222 96.3274 77.897C95.5488 78.1717 94.6901 78.3091 93.7512 78.3091C92.0795 78.3091 90.7972 77.9084 89.9041 77.1069C89.0339 76.3054 88.5988 75.1948 88.5988 73.7751C88.5988 72.2408 89.1369 71.0844 90.2132 70.3058C91.2895 69.5043 92.7436 69.1036 94.5756 69.1036C95.2396 69.1036 95.9037 69.1608 96.5678 69.2753C97.2319 69.3898 97.77 69.5387 98.1822 69.7219V68.8975C98.1822 68.0044 97.896 67.3747 97.3235 67.0083C96.7739 66.619 95.9037 66.4243 94.713 66.4243C93.8657 66.4243 92.9955 66.5274 92.1024 66.7335C91.2322 66.9396 90.5338 67.2029 90.0071 67.5235L89.8354 63.6764C90.5453 63.3329 91.3811 63.0696 92.3429 62.8864C93.3275 62.6803 94.3351 62.5772 95.3656 62.5772C97.6555 62.5772 99.4073 63.0696 100.621 64.0543C101.858 65.016 102.476 66.5388 102.476 68.6227V78ZM98.1822 74.4964V72.3324C97.8616 72.1721 97.4609 72.0462 96.98 71.9546C96.522 71.863 96.0755 71.8172 95.6404 71.8172C94.7702 71.8172 94.1061 71.9775 93.6481 72.298C93.1901 72.5957 92.9611 73.0652 92.9611 73.7064C92.9611 74.3017 93.1558 74.7368 93.5451 75.0116C93.9344 75.2635 94.5069 75.3895 95.2625 75.3895C95.7892 75.3895 96.3274 75.3093 96.8769 75.149C97.4265 74.9658 97.8616 74.7483 98.1822 74.4964ZM115.792 63.3329L115.14 66.9052C114.659 66.6762 114.063 66.493 113.354 66.3556C112.667 66.1954 111.968 66.1152 111.258 66.1152C110.617 66.1152 110.136 66.2183 109.816 66.4243C109.518 66.6304 109.369 66.9052 109.369 67.2487C109.369 67.5235 109.541 67.764 109.884 67.9701C110.228 68.1533 110.663 68.325 111.19 68.4853C111.739 68.6456 112.312 68.8402 112.907 69.0692C113.525 69.2982 114.098 69.5845 114.624 69.928C115.174 70.2714 115.609 70.7294 115.93 71.3019C116.273 71.8515 116.445 72.5499 116.445 73.3972C116.445 74.2674 116.227 75.0803 115.792 75.836C115.38 76.5688 114.693 77.1642 113.731 77.6222C112.792 78.0801 111.567 78.3091 110.056 78.3091C109.026 78.3091 108.018 78.1946 107.033 77.9657C106.072 77.7367 105.293 77.439 104.698 77.0726L104.972 73.3629C105.545 73.7293 106.289 74.0613 107.205 74.359C108.144 74.6338 109.071 74.7712 109.987 74.7712C111.293 74.7712 111.945 74.3819 111.945 73.6033C111.945 73.3056 111.773 73.0652 111.43 72.882C111.086 72.6988 110.651 72.527 110.125 72.3667C109.598 72.1835 109.026 71.9775 108.407 71.7485C107.789 71.5195 107.216 71.2332 106.69 70.8897C106.163 70.5233 105.728 70.0654 105.385 69.5158C105.041 68.9662 104.869 68.2678 104.869 67.4205C104.869 66.5045 105.121 65.6916 105.625 64.9817C106.152 64.2489 106.896 63.665 107.858 63.2299C108.819 62.7948 109.964 62.5772 111.293 62.5772C112.186 62.5772 113.033 62.6459 113.834 62.7833C114.636 62.8978 115.289 63.081 115.792 63.3329ZM133.397 62.8864L128.932 75.7673C128.291 77.668 127.524 79.248 126.631 80.5075C125.76 81.767 124.799 82.7287 123.745 83.3928C122.715 84.0569 121.627 84.4805 120.482 84.6637L118.627 81.2288C119.703 81.0227 120.608 80.6449 121.341 80.0953C122.096 79.5457 122.703 78.8473 123.161 78L117.185 62.9894L121.822 62.7833L124.363 69.344C124.661 70.1913 124.925 70.9813 125.154 71.7141C125.405 72.4469 125.577 73.0652 125.669 73.569H125.84C125.932 73.0652 126.069 72.4469 126.253 71.7141C126.436 70.9813 126.653 70.1913 126.905 69.344L128.966 62.8864H133.397ZM160.31 78H155.432L153.715 73.0194H146.536L144.784 78H140.147L147.566 57.5966H152.89L160.31 78ZM152.547 69.4127L150.898 64.7756C150.738 64.3176 150.6 63.894 150.486 63.5047C150.394 63.0925 150.303 62.6803 150.211 62.2681H150.039C149.948 62.6803 149.845 63.0925 149.73 63.5047C149.639 63.894 149.513 64.3176 149.352 64.7756L147.669 69.4127H152.547ZM177.709 64.6038C177.709 66.1152 177.366 67.3976 176.679 68.4509C176.014 69.5043 175.041 70.2943 173.759 70.821C172.476 71.3477 170.931 71.6111 169.122 71.6111H166.717V78H162.149V57.5966H169.156C170.965 57.5966 172.499 57.8714 173.759 58.421C175.041 58.9706 176.014 59.7606 176.679 60.7911C177.366 61.8216 177.709 63.0925 177.709 64.6038ZM173.141 64.6038C173.141 63.8482 172.969 63.2299 172.625 62.749C172.305 62.2681 171.835 61.9132 171.217 61.6842C170.622 61.4552 169.9 61.3407 169.053 61.3407H166.717V67.867H169.053C169.9 67.867 170.622 67.7525 171.217 67.5235C171.835 67.2945 172.305 66.9396 172.625 66.4587C172.969 65.9778 173.141 65.3595 173.141 64.6038ZM184.756 57.5966V78H180.187V57.5966H184.756ZM53.1092 91.8864L48.6438 107H43.9723L42.1862 101.676C41.8656 100.577 41.6022 99.6951 41.3962 99.031C41.1901 98.344 41.0183 97.7143 40.8809 97.1418H40.7092C40.5947 97.7143 40.4229 98.344 40.1939 99.031C39.9878 99.6951 39.7245 100.577 39.4039 101.676L37.6178 107H32.9463L28.4809 91.9894L32.9119 91.7833L34.9385 98.9967C35.053 99.4775 35.1675 100.05 35.282 100.714C35.4194 101.355 35.5225 101.951 35.5912 102.5H35.7629C35.8316 101.951 35.9461 101.355 36.1064 100.714C36.2667 100.05 36.4155 99.4775 36.5529 98.9967L38.5452 93.0199H43.2167L45.2089 98.9967C45.3463 99.4775 45.4951 100.05 45.6554 100.714C45.8157 101.355 45.9302 101.951 45.9989 102.5H46.1707C46.2394 101.951 46.331 101.355 46.4455 100.714C46.5829 100.05 46.7088 99.4775 46.8233 98.9967L48.7812 91.8864H53.1092ZM64.4492 91.749L64.2775 95.9739C64.1401 95.9052 63.8997 95.8365 63.5562 95.7678C63.2356 95.6991 62.9264 95.6648 62.6287 95.6648C62.0105 95.6648 61.4036 95.7793 60.8082 96.0083C60.2358 96.2144 59.7091 96.5006 59.2282 96.867V107H54.8315V91.9894L59.2282 91.7833V93.5695C59.8923 92.8825 60.5678 92.3787 61.2548 92.0581C61.9647 91.7375 62.6974 91.5772 63.4531 91.5772C63.6134 91.5772 63.7852 91.5887 63.9684 91.6116C64.1744 91.6345 64.3347 91.6803 64.4492 91.749ZM79.1118 107H74.9555V105.832C74.4059 106.267 73.7418 106.622 72.9633 106.897C72.1847 107.172 71.326 107.309 70.3871 107.309C68.7154 107.309 67.4331 106.908 66.54 106.107C65.6698 105.305 65.2347 104.195 65.2347 102.775C65.2347 101.241 65.7728 100.084 66.8491 99.3058C67.9254 98.5043 69.3795 98.1036 71.2115 98.1036C71.8755 98.1036 72.5396 98.1608 73.2037 98.2753C73.8678 98.3898 74.4059 98.5387 74.8181 98.7219V97.8975C74.8181 97.0044 74.5319 96.3747 73.9594 96.0083C73.4098 95.619 72.5396 95.4243 71.3489 95.4243C70.5016 95.4243 69.6314 95.5274 68.7383 95.7335C67.8681 95.9396 67.1697 96.2029 66.643 96.5235L66.4713 92.6764C67.1812 92.3329 68.017 92.0696 68.9788 91.8864C69.9634 91.6803 70.971 91.5772 72.0015 91.5772C74.2914 91.5772 76.0432 92.0696 77.2569 93.0543C78.4935 94.016 79.1118 95.5388 79.1118 97.6227V107ZM74.8181 103.496V101.332C74.4975 101.172 74.0968 101.046 73.6159 100.955C73.1579 100.863 72.7114 100.817 72.2763 100.817C71.4061 100.817 70.742 100.977 70.284 101.298C69.826 101.596 69.597 102.065 69.597 102.706C69.597 103.302 69.7917 103.737 70.181 104.012C70.5703 104.264 71.1428 104.389 71.8984 104.389C72.4251 104.389 72.9633 104.309 73.5128 104.149C74.0624 103.966 74.4975 103.748 74.8181 103.496ZM97.0997 99.2714C97.0997 100.806 96.7676 102.18 96.1036 103.393C95.4624 104.607 94.5693 105.569 93.4243 106.279C92.3023 106.966 90.997 107.309 89.5085 107.309C88.2262 107.309 87.1842 107.103 86.3828 106.691V113.355H81.9861V91.9894L86.3828 91.7833V92.8825C86.9094 92.4474 87.4934 92.1268 88.1346 91.9207C88.7757 91.6917 89.5085 91.5772 90.3329 91.5772C91.5924 91.5772 92.7259 91.8864 93.7335 92.5047C94.7639 93.123 95.5769 94.0046 96.1723 95.1496C96.7905 96.2945 97.0997 97.6685 97.0997 99.2714ZM92.5656 99.4088C92.5656 98.5845 92.4282 97.8746 92.1534 97.2792C91.8786 96.6609 91.4664 96.1915 90.9168 95.8709C90.3902 95.5274 89.7261 95.3556 88.9246 95.3556C87.9399 95.3556 87.0926 95.619 86.3828 96.1457V103.119C86.6805 103.233 87.0239 103.336 87.4132 103.428C87.8254 103.496 88.2491 103.531 88.6842 103.531C89.4856 103.531 90.1726 103.37 90.7451 103.05C91.3176 102.706 91.7641 102.225 92.0847 101.607C92.4053 100.966 92.5656 100.233 92.5656 99.4088ZM114.199 99.2714C114.199 100.806 113.867 102.18 113.203 103.393C112.562 104.607 111.669 105.569 110.524 106.279C109.402 106.966 108.096 107.309 106.608 107.309C105.326 107.309 104.284 107.103 103.482 106.691V113.355H99.0855V91.9894L103.482 91.7833V92.8825C104.009 92.4474 104.593 92.1268 105.234 91.9207C105.875 91.6917 106.608 91.5772 107.432 91.5772C108.692 91.5772 109.825 91.8864 110.833 92.5047C111.863 93.123 112.676 94.0046 113.272 95.1496C113.89 96.2945 114.199 97.6685 114.199 99.2714ZM109.665 99.4088C109.665 98.5845 109.528 97.8746 109.253 97.2792C108.978 96.6609 108.566 96.1915 108.016 95.8709C107.49 95.5274 106.825 95.3556 106.024 95.3556C105.039 95.3556 104.192 95.619 103.482 96.1457V103.119C103.78 103.233 104.123 103.336 104.513 103.428C104.925 103.496 105.348 103.531 105.784 103.531C106.585 103.531 107.272 103.37 107.845 103.05C108.417 102.706 108.864 102.225 109.184 101.607C109.505 100.966 109.665 100.233 109.665 99.4088ZM129.581 100.508H119.895C120.032 101.126 120.307 101.664 120.719 102.122C121.154 102.558 121.704 102.89 122.368 103.119C123.055 103.348 123.856 103.462 124.772 103.462C125.551 103.462 126.387 103.359 127.28 103.153C128.173 102.924 128.906 102.638 129.478 102.294L129.65 106.038C129.054 106.45 128.253 106.771 127.245 107C126.261 107.206 125.333 107.309 124.463 107.309C122.517 107.309 120.845 106.989 119.448 106.347C118.074 105.683 117.032 104.756 116.322 103.565C115.635 102.374 115.292 100.977 115.292 99.3745C115.292 97.7944 115.612 96.4319 116.254 95.287C116.918 94.1191 117.822 93.2146 118.967 92.5734C120.135 91.9093 121.44 91.5772 122.883 91.5772C124.211 91.5772 125.39 91.8406 126.421 92.3673C127.474 92.894 128.287 93.6611 128.86 94.6687C129.455 95.6533 129.753 96.8441 129.753 98.241C129.753 98.5387 129.73 98.9051 129.684 99.3401C129.661 99.7523 129.627 100.142 129.581 100.508ZM122.917 94.7374C122.024 94.7374 121.291 95.0351 120.719 95.6304C120.169 96.2258 119.837 97.0159 119.723 98.0005H125.665C125.665 97.9547 125.665 97.886 125.665 97.7944C125.665 97.6799 125.665 97.5998 125.665 97.554C125.665 96.7067 125.413 96.0312 124.91 95.5274C124.429 95.0007 123.765 94.7374 122.917 94.7374ZM141.594 91.749L141.422 95.9739C141.285 95.9052 141.044 95.8365 140.701 95.7678C140.38 95.6991 140.071 95.6648 139.773 95.6648C139.155 95.6648 138.548 95.7793 137.953 96.0083C137.38 96.2144 136.854 96.5006 136.373 96.867V107H131.976V91.9894L136.373 91.7833V93.5695C137.037 92.8825 137.712 92.3787 138.399 92.0581C139.109 91.7375 139.842 91.5772 140.598 91.5772C140.758 91.5772 140.93 91.5887 141.113 91.6116C141.319 91.6345 141.479 91.6803 141.594 91.749ZM159.114 85.4631L158.942 89.2415C158.782 89.1728 158.564 89.127 158.29 89.1041C158.038 89.0812 157.797 89.0698 157.568 89.0698C156.744 89.0698 156.114 89.253 155.679 89.6193C155.244 89.9857 155.027 90.5926 155.027 91.4399V91.8864H158.771L158.461 95.6648H155.027V107H150.63V95.6648H148.569V91.8864H150.63V91.3712C150.63 89.356 151.214 87.8332 152.382 86.8027C153.55 85.7493 155.118 85.2227 157.087 85.2227C157.408 85.2227 157.763 85.2456 158.152 85.2914C158.542 85.3372 158.862 85.3944 159.114 85.4631ZM175.888 99.4432C175.888 100.955 175.533 102.306 174.823 103.496C174.136 104.687 173.174 105.626 171.938 106.313C170.701 106.977 169.293 107.309 167.713 107.309C166.133 107.309 164.724 106.977 163.488 106.313C162.251 105.626 161.278 104.687 160.568 103.496C159.881 102.306 159.538 100.955 159.538 99.4432C159.538 97.9089 159.881 96.5579 160.568 95.39C161.278 94.1992 162.251 93.2718 163.488 92.6077C164.724 91.9207 166.133 91.5772 167.713 91.5772C169.293 91.5772 170.701 91.9207 171.938 92.6077C173.174 93.2718 174.136 94.1992 174.823 95.39C175.533 96.5579 175.888 97.9089 175.888 99.4432ZM171.354 99.4432C171.354 98.6417 171.194 97.9433 170.873 97.3479C170.552 96.7296 170.117 96.2602 169.568 95.9396C169.018 95.5961 168.4 95.4243 167.713 95.4243C167.026 95.4243 166.408 95.5961 165.858 95.9396C165.308 96.2602 164.873 96.7296 164.553 97.3479C164.232 97.9433 164.072 98.6417 164.072 99.4432C164.072 100.245 164.232 100.955 164.553 101.573C164.873 102.168 165.308 102.638 165.858 102.981C166.431 103.302 167.049 103.462 167.713 103.462C168.423 103.462 169.052 103.302 169.602 102.981C170.152 102.638 170.575 102.168 170.873 101.573C171.194 100.955 171.354 100.245 171.354 99.4432ZM187.483 91.749L187.312 95.9739C187.174 95.9052 186.934 95.8365 186.59 95.7678C186.27 95.6991 185.961 95.6648 185.663 95.6648C185.045 95.6648 184.438 95.7793 183.842 96.0083C183.27 96.2144 182.743 96.5006 182.262 96.867V107H177.866V91.9894L182.262 91.7833V93.5695C182.926 92.8825 183.602 92.3787 184.289 92.0581C184.999 91.7375 185.732 91.5772 186.487 91.5772C186.648 91.5772 186.819 91.5887 187.003 91.6116C187.209 91.6345 187.369 91.6803 187.483 91.749Z" fill="white"/>
<path d="M200.573 86.5966V107H196.004V86.5966H200.573ZM203.084 107V103.256L210.469 95.6648H203.496V91.8864H215.69V95.6304L208.34 103.222H216.102V107H203.084ZM222.684 85.2227V107H218.288V85.4288L222.684 85.2227ZM240.431 91.8864L235.966 104.767C235.324 106.668 234.557 108.248 233.664 109.507C232.794 110.767 231.832 111.729 230.779 112.393C229.748 113.057 228.661 113.481 227.516 113.664L225.661 110.229C226.737 110.023 227.642 109.645 228.374 109.095C229.13 108.546 229.737 107.847 230.195 107L224.218 91.9894L228.855 91.7833L231.397 98.344C231.695 99.1913 231.958 99.9813 232.187 100.714C232.439 101.447 232.611 102.065 232.702 102.569H232.874C232.966 102.065 233.103 101.447 233.286 100.714C233.47 99.9813 233.687 99.1913 233.939 98.344L236 91.8864H240.431Z" fill="#A0E3FF"/>
<g style="mix-blend-mode:overlay">
<path fill-rule="evenodd" clip-rule="evenodd" d="M477.798 -3.92365L379 -3.92364V-55L477.798 -55L477.798 -3.92365L529.11 -3.92364V94.7405L477.798 95.3454L477.798 47.5157C451.624 47.9714 430.547 69.211 430.547 95.3454H379C379 40.9038 423.155 -3.46485 477.798 -3.92365Z" fill="#A0E3FF"/>
<path fill-rule="evenodd" clip-rule="evenodd" d="M580.892 94.9329L679.69 94.9293V146.187H580.892V94.9293L529.11 94.7407V-3.92345L580.892 -3.92345V43.6713C607.066 43.2156 628.127 22.211 628.127 -3.92345H679.221C679.221 50.5181 635.536 94.4705 580.892 94.9293V94.9329Z" fill="#0699D8" fill-opacity="0.5"/>
<path fill-rule="evenodd" clip-rule="evenodd" d="M778.489 47.0959L679.221 47.0959V-3.92334L778.489 -3.92334V47.0995L830.036 47.0995V146.187H778.489V98.3574C752.315 98.8132 731.238 120.053 731.238 146.187H679.691C679.691 91.7456 723.845 47.5583 778.489 47.0995V47.0959Z" fill="#A0E3FF" fill-opacity="0.7"/>
</g>
</g>
<rect x="0.5" y="0.5" width="829" height="134" rx="13.5" stroke="url(#paint2_linear_512_6299)" style="mix-blend-mode:overlay"/>
<rect x="0.5" y="0.5" width="829" height="134" rx="13.5" stroke="url(#paint3_linear_512_6299)" stroke-opacity="0.1"/>
<rect x="0.5" y="0.5" width="829" height="134" rx="13.5" stroke="white" stroke-opacity="0.1"/>
<defs>
<radialGradient id="paint0_radial_512_6299" cx="0" cy="0" r="1" gradientUnits="userSpaceOnUse" gradientTransform="translate(9.4458e-07 165.586) rotate(17.7974) scale(413.385 308.037)">
<stop offset="0.100613" stop-color="#A0E3FF" stop-opacity="0"/>
<stop offset="0.515" stop-color="#00B3FF"/>
<stop offset="1" stop-color="#00B3FF" stop-opacity="0.35"/>
</radialGradient>
<radialGradient id="paint1_radial_512_6299" cx="0" cy="0" r="1" gradientUnits="userSpaceOnUse" gradientTransform="translate(1075 -132) rotate(110.154) scale(458.578 1768.11)">
<stop stop-color="#2B89B1" stop-opacity="0"/>
<stop offset="0.285" stop-color="#2B89B1"/>
<stop offset="1" stop-color="#2B89B1" stop-opacity="0.184314"/>
</radialGradient>
<linearGradient id="paint2_linear_512_6299" x1="415" y1="0" x2="415" y2="135" gradientUnits="userSpaceOnUse">
<stop stop-color="white" stop-opacity="0.6"/>
<stop offset="0.5" stop-color="white" stop-opacity="0"/>
<stop offset="1" stop-color="white"/>
</linearGradient>
<linearGradient id="paint3_linear_512_6299" x1="415" y1="0" x2="415" y2="135" gradientUnits="userSpaceOnUse">
<stop stop-color="white" stop-opacity="0.6"/>
<stop offset="0.5" stop-color="white" stop-opacity="0"/>
<stop offset="1" stop-color="white"/>
</linearGradient>
<clipPath id="clip0_512_6299">
<rect width="830" height="135" rx="14" fill="white"/>
</clipPath>
</defs>
</svg>
